<?xml version="1.0" encoding="UTF-8"?>
<svg width="90px" height="52px" viewBox="0 0 90 52" version="1.1" xmlns="http://www.w3.org/2000/svg" xmlns:xlink="http://www.w3.org/1999/xlink">
    <!-- Generator: Sketch 43.2 (39069) - http://www.bohemiancoding.com/sketch -->
    <title>Group</title>
    <desc>Created with Sketch.</desc>
    <defs></defs>
    <g id="Page-1" stroke="none" stroke-width="1" fill="none" fill-rule="evenodd" stroke-linecap="round" stroke-linejoin="round">
        <g id="eye3" transform="translate(-5.000000, 2.000000)" stroke="#303481" stroke-width="5">
            <g id="Group" transform="translate(8.000000, 0.000000)">
                <path d="M83.7,28 C84.5,28.4 65,46.8 42,46.8 C19,46.8 0.3,28 0.3,28 C0.3,28 19,9.2 42,9.2 C65,9.2 84.5,28.4 83.7,28 Z" id="Shape"></path>
                <path d="M66.3,15.7 C69.1,19 70.8,23.3 70.8,28 C70.8,33 68.9,37.5 65.8,40.8" id="Shape"></path>
                <path d="M48.1,46.4 C39.6,44.6 33.2,37 33.2,28 C33.2,19.1 39.4,11.6 47.7,9.7" id="Shape"></path>
                <circle fill="#D6E6F2" id="Oval" cx="52" cy="28" r="9.3"></circle>
                <path d="M42,0.9 L42,9.2" id="Shape"></path>
                <path d="M4,13.8 L9,20.3" id="Shape"></path>
                <path d="M21,4.5 L24,12.2" id="Shape"></path>
                <path d="M63,4.5 L60,12.2" id="Shape"></path>
                <path d="M80,13.8 L75,20.3" id="Shape"></path>
            </g>
        </g>
    </g>
</svg>
