<?xml version="1.0" encoding="UTF-8"?>
<svg width="90px" height="52px" viewBox="0 0 90 52" version="1.1" xmlns="http://www.w3.org/2000/svg" xmlns:xlink="http://www.w3.org/1999/xlink">
    <!-- Generator: Sketch 43.2 (39069) - http://www.bohemiancoding.com/sketch -->
    <title>eye4</title>
    <desc>Created with Sketch.</desc>
    <defs></defs>
    <g id="Page-1" stroke="none" stroke-width="1" fill="none" fill-rule="evenodd" stroke-linecap="round" stroke-linejoin="round">
        <g id="eye4" transform="translate(3.000000, 2.000000)" stroke-width="5" stroke="#303481">
            <g id="Group">
                <path d="M83.7,28 C84.5,28.4 65,46.8 42,46.8 C19,46.8 0.3,28 0.3,28 C0.3,28 19,9.2 42,9.2 C65,9.2 84.5,28.4 83.7,28 Z" id="Shape"></path>
                <path d="M23.4,43 C23.2,42 23.2,41 23.2,40 C23.2,29.6 31.6,21.2 42,21.2 C52.4,21.2 60.8,29.6 60.8,40 C60.8,41.1 60.7,42.1 60.5,43.1" id="Shape"></path>
                <path fill="#D6E6F2" d="M35.2,46.3 C33.7,44.6 32.7,42.4 32.7,40 C32.7,34.9 36.8,30.7 42,30.7 C47.2,30.7 51.3,34.8 51.3,40 C51.3,42.4 50.4,44.7 48.8,46.3" id="Shape"></path>
                <path d="M42,0.9 L42,9.2" id="Shape"></path>
                <path d="M4,13.8 L9,20.3" id="Shape"></path>
                <path d="M21,4.5 L24,12.2" id="Shape"></path>
                <path d="M63,4.5 L60,12.2" id="Shape"></path>
                <path d="M80,13.8 L75,20.3" id="Shape"></path>
            </g>
        </g>
    </g>
</svg>
