<?xml version="1.0" encoding="UTF-8"?>
<svg width="90px" height="52px" viewBox="0 0 90 52" version="1.1" xmlns="http://www.w3.org/2000/svg" xmlns:xlink="http://www.w3.org/1999/xlink">
    <!-- Generator: Sketch 43.2 (39069) - http://www.bohemiancoding.com/sketch -->
    <title>Group</title>
    <desc>Created with Sketch.</desc>
    <defs></defs>
    <g id="Page-1" stroke="none" stroke-width="1" fill="none" fill-rule="evenodd" stroke-linecap="round" stroke-linejoin="round">
        <g id="eye5" transform="translate(-5.000000, 2.000000)" stroke="#303481" stroke-width="5">
            <g id="Group" transform="translate(8.000000, 0.000000)">
                <path d="M83.7,28 C84.5,28.4 65,46.8 42,46.8 C19,46.8 0.3,28 0.3,28 C0.3,28 19,9.2 42,9.2 C65,9.2 84.5,28.4 83.7,28 Z" id="Shape"></path>
                <path d="M36.1,9.6 C44.5,11.5 50.8,19 50.8,28 C50.8,37 44.4,44.6 35.9,46.4" id="Shape"></path>
                <path d="M17.9,40.5 C15,37.2 13.2,32.8 13.2,28 C13.2,23.2 15,18.9 17.9,15.5" id="Shape"></path>
                <circle fill="#D6E6F2" id="Oval" cx="32" cy="28" r="9.3"></circle>
                <path d="M42,0.9 L42,9.2" id="Shape"></path>
                <path d="M4,13.8 L9,20.3" id="Shape"></path>
                <path d="M21,4.5 L24,12.2" id="Shape"></path>
                <path d="M63,4.5 L60,12.2" id="Shape"></path>
                <path d="M80,13.8 L75,20.3" id="Shape"></path>
            </g>
        </g>
    </g>
</svg>
